<?xml version="1.0" encoding="UTF-8" standalone="no"?>
<!-- Created with Inkscape (http://www.inkscape.org/) -->

<svg
   xmlns:dc="http://purl.org/dc/elements/1.1/"
   xmlns:cc="http://creativecommons.org/ns#"
   xmlns:rdf="http://www.w3.org/1999/02/22-rdf-syntax-ns#"
   xmlns:svg="http://www.w3.org/2000/svg"
   xmlns="http://www.w3.org/2000/svg"
   xmlns:sodipodi="http://sodipodi.sourceforge.net/DTD/sodipodi-0.dtd"
   xmlns:inkscape="http://www.inkscape.org/namespaces/inkscape"
   width="512"
   height="512"
   viewBox="0 0 135.46666 135.46667"
   version="1.1"
   id="svg8"
   inkscape:version="0.92.4 (5da689c313, 2019-01-14)"
   sodipodi:docname="virus.svg">
  <defs
     id="defs2" />
  <sodipodi:namedview
     id="base"
     pagecolor="#ffffff"
     bordercolor="#666666"
     borderopacity="1.0"
     inkscape:pageopacity="0.0"
     inkscape:pageshadow="2"
     inkscape:zoom="0.7"
     inkscape:cx="169.50788"
     inkscape:cy="285.30089"
     inkscape:document-units="mm"
     inkscape:current-layer="layer1"
     showgrid="false"
     units="px"
     inkscape:window-width="1366"
     inkscape:window-height="705"
     inkscape:window-x="-8"
     inkscape:window-y="-8"
     inkscape:window-maximized="1" />
  <metadata
     id="metadata5">
    <rdf:RDF>
      <cc:Work
         rdf:about="">
        <dc:format>image/svg+xml</dc:format>
        <dc:type
           rdf:resource="http://purl.org/dc/dcmitype/StillImage" />
        <dc:title />
      </cc:Work>
    </rdf:RDF>
  </metadata>
  <g
     inkscape:label="Vrstva 1"
     inkscape:groupmode="layer"
     id="layer1"
     transform="translate(0,-161.53332)">
    <path
       style="fill:#000000;stroke-width:0.20603409"
       d="m 23.496564,259.30383 c 1.354786,2.00112 3.390613,3.45758 5.828469,4.04445 0.923043,0.24631 1.399519,0.28339 1.864952,0.30059 0.619466,0.0294 0.754409,0.0471 1.399011,-0.0251 3.925263,-0.44014 6.125983,-2.16051 9.573846,-7.48374 0.839965,-1.29684 1.981635,-2.93318 2.536734,-3.63639 2.305069,-2.34979 2.268208,-3.06838 4.15146,-1.90243 1.770638,1.60754 3.845852,3.02989 6.059489,4.15374 1.705816,1.29525 1.826929,1.4801 1.077215,3.28992 -0.620806,1.49863 -1.226143,1.69342 -4.601344,3.56259 -1.387992,0.76866 -1.901279,1.15383 -2.559453,1.92053 -1.557821,1.81471 -2.472853,4.2794 -2.437383,6.56492 0.06379,1.2398 0.04234,1.26562 0.295621,2.3863 0.56756,2.57271 2.631877,5.19848 5.080186,6.46161 1.42188,0.73357 3.563958,1.18634 5.159527,1.09068 4.681722,-0.28074 8.699872,-3.94098 9.349924,-8.51747 0.09479,-0.66736 0.03245,-2.36227 -0.13809,-3.76656 -0.600499,-4.73141 0.445612,-9.74734 4.432654,-10.18149 1.14815,-0.0795 2.249707,-0.33223 3.324755,-0.58989 3.319981,-0.75114 6.373474,-2.24727 8.716601,-3.78027 2.98384,-2.183 6.44308,-5.91247 7.456735,-0.0874 0.211172,1.2981 0.353559,1.62382 1.379846,3.16065 0.860333,1.2883 1.400995,1.90665 2.179406,2.49261 3.527746,2.65553 8.034275,2.82873 11.647965,0.44734 4.59003,-3.02472 5.85324,-9.13297 2.83645,-13.71518 -1.84185,-2.79755 -3.47536,-3.74363 -8.00804,-4.63819 -4.63389,-0.91456 -5.85424,-1.75235 -5.646101,-3.87582 0.522102,-2.73796 0.518999,-2.69623 0.618177,-6.28233 0.0038,-3.19433 -0.570884,-6.5515 -1.654789,-9.74931 -0.627379,-2.25499 -1.337187,-2.9495 0.169458,-4.09446 2.587389,-1.46677 3.835578,-1.56654 7.180155,-0.57498 4.32544,1.28235 8.94328,-0.68074 11.31295,-4.8091 0.65112,-1.15025 0.64697,-1.13954 0.98439,-2.85173 0.34055,-1.6983 0.30739,-2.79821 -0.13964,-4.63669 -0.36454,-1.49915 -1.98455,-3.97844 -3.22919,-4.94189 -1.59796,-1.23698 -2.59929,-1.6996 -4.50193,-2.07999 -2.83906,-0.5676 -5.04431,-0.0812 -7.702557,1.69844 -2.143711,1.43515 -3.457382,2.60233 -9.201449,8.17746 -2.299863,2.05358 -2.426466,2.00537 -4.910944,0.84471 -2.365827,-1.62151 -5.103714,-2.96137 -7.836473,-3.8156 -2.229282,-0.69687 -6.458062,-1.31775 -8.298672,-1.21843 -0.848719,-0.2181 -0.931288,-0.45945 -0.913606,-1.47158 0.02243,-0.88572 0.739148,-4.32081 1.135024,-5.44035 0.09361,-0.26472 0.480917,-1.35055 0.860758,-2.413 1.485333,-4.15458 1.298709,-6.86156 -0.67977,-9.86831 -1.582447,-2.4047 -3.833958,-3.87868 -6.644682,-4.3502 -6.649502,-1.1155 -12.343304,4.34302 -11.523527,11.04732 0.388552,3.17792 2.075182,5.71477 4.95011,7.44508 1.330878,0.80097 1.503364,0.97026 2.101401,2.06343 0.50025,0.91441 0.692357,1.59704 0.826753,2.93976 l 0.174831,1.74889 -0.704235,0.3923 c -0.387552,0.21576 -0.835088,0.42467 -0.994395,0.46428 -0.159316,0.0396 -1.176574,0.60051 -2.260541,1.24647 -1.781914,1.06191 -2.024034,1.15617 -2.526488,0.98346 -0.696643,-0.23946 -2.165882,-1.29343 -3.723804,-2.67141 -1.222642,-1.08143 -1.261476,-1.13619 -4.940416,-6.98506 -0.902979,-1.43558 -1.099246,-1.63833 -2.295831,-2.36856 -1.515719,-0.92498 -3.434642,-1.36817 -5.146421,-1.18879 -1.363528,0.14289 -1.388104,0.15106 -2.953043,0.98035 -1.541562,0.81688 -2.832275,2.2214 -3.520899,3.83165 -0.6232,1.45726 -0.722028,2.52742 -0.41793,4.52559 0.202739,1.33227 0.34555,1.68002 1.252639,3.04968 1.680697,2.53769 3.715884,3.71549 6.495869,3.75959 0.799835,0.0127 1.937207,0.22042 2.527864,0.46147 2.149847,0.87734 4.432658,3.13333 4.799544,4.74365 0.173484,0.76144 -0.130737,2.00058 -0.979769,3.98986 -1.329706,3.11551 -2.17827,7.21745 -2.184447,10.56078 -0.0033,1.75215 0.347254,4.63212 0.894422,7.34645 0.550236,2.72953 -0.185764,4.42636 -2.389475,5.50831 -1.585113,0.77824 -3.02145,1.01509 -5.983571,0.98732 -3.224717,-0.0302 -4.446509,0.24887 -6.229837,1.4218 -2.118114,1.39337 -3.374957,3.13453 -4.18655,5.80042 -0.285905,0.95233 -0.205685,1.38111 -0.293478,1.94547 -0.05505,0.34108 -0.06037,0.97285 -0.01183,1.40354 0.20013,1.77518 0.808445,3.39916 1.735405,4.76835 z m 3.572192,-2.64954 c -0.424342,-0.64495 -0.707301,-1.38684 -0.797279,-2.19287 -0.301844,-2.70392 1.40074,-5.47016 3.622754,-5.88579 0.400281,-0.0748 1.886047,-0.12921 3.301459,-0.12073 1.415405,0.008 2.872432,-0.036 3.237682,-0.0991 1.431275,-0.24694 3.426712,-1.05919 4.966093,-2.02157 1.915322,-1.19739 3.040463,-2.52401 3.705973,-4.36895 0.663007,-1.88665 0.326604,-2.95582 -0.201851,-4.61706 -2.095496,-6.62152 -1.162471,-13.87065 2.615774,-19.77295 0.144681,-0.82591 0.15364,-1.55693 0.04451,-2.28749 -0.252888,-1.691 -0.226084,-1.62723 -1.481181,-3.55862 -2.249905,-3.46227 -6.062298,-5.76877 -9.665994,-5.84758 -0.799581,-0.0176 -1.775032,-0.20739 -2.167535,-0.42212 -1.534414,-0.8394 -2.312793,-3.14462 -1.624925,-4.81196 0.274373,-0.66494 0.499322,-0.88919 1.424262,-1.41776 1.931508,-1.10389 3.789387,-0.58268 4.923131,1.38103 0.31702,0.54901 1.369837,2.19653 2.339282,3.66122 1.514273,2.28765 1.979428,2.85774 3.301133,4.04516 2.11725,1.90214 4.513771,3.33994 6.125829,3.67463 1.408658,0.0471 2.426955,-0.58942 3.669172,-1.42714 1.608014,-1.04665 3.335469,-1.89092 5.143153,-2.51606 1.884525,-0.70651 1.925258,-0.72031 2.371293,-2.04447 0.03796,-1.30013 0.11594,-2.17272 0.173001,-1.93909 1.001566,2.58866 1.719449,2.81446 4.023768,2.69358 5.059929,-0.25465 10.039819,1.13519 14.210025,3.91042 4.360658,4.09936 6.055833,3.63939 9.825789,0.60145 0.186704,-0.18131 1.182084,-1.15823 2.211829,-2.17086 5.558514,-5.4661 7.737417,-7.24404 9.429507,-7.69419 1.33753,-0.35582 3.14678,-0.11147 4.348,0.58739 1.0553,0.61396 2.14968,1.93277 2.44683,2.94859 0.75074,2.56623 -0.41084,5.47144 -2.65183,6.63199 -1.3301,0.68883 -2.59434,0.77628 -4.16644,0.28785 -4.51931,-1.40408 -7.429317,-0.91052 -11.379408,1.93071 -4.569644,2.52539 -2.281164,5.13312 -0.99341,8.38927 1.627134,4.48945 1.863753,9.41256 0.604351,14.10754 -0.04283,0.73069 -0.04408,1.43809 0.0084,1.88407 0.139709,1.18573 0.290834,1.58385 1.031661,2.71289 0.477521,0.72776 1.226901,1.6236 1.664859,1.99082 0.894327,0.67525 0.921401,0.59614 1.895482,1.1474 0.48118,0.27666 2.383102,0.79336 4.33196,1.17691 3.161985,0.62231 3.556965,0.7547 4.399215,1.47453 1.02363,0.87487 1.6094,1.90207 1.84008,3.22831 0.1399,2.18744 -0.12986,2.60235 -0.67066,3.814 -1.14593,1.96968 -3.24203,2.94219 -5.534282,2.56766 -2.662725,-0.43504 -4.361561,-2.22099 -4.693796,-4.93384 -0.164442,-1.34267 -0.285313,-1.65434 -1.149479,-2.96142 -0.79384,-1.20089 -1.15619,-1.57908 -2.03566,-2.12535 -1.408191,-0.87468 -2.653554,-1.19941 -4.1338,-1.07736 -1.088243,0.0897 -1.283216,0.16259 -2.455324,1.05084 -1.278701,1.38521 -2.890629,2.35057 -4.462142,3.39183 -2.581197,1.63287 -5.254781,3.00763 -8.620331,3.22282 -3.410685,0.21806 -6.613037,0.24922 -7.614678,1.9358 -1.136544,1.91823 -1.915815,4.40385 -2.19297,6.99462 -0.257853,2.41026 -0.243001,3.62752 0.07812,6.45741 0.355638,3.134 -0.113675,4.70087 -1.824768,6.0946 -2.481184,2.02098 -6.34825,1.44672 -8.08529,-1.20057 -0.648155,-0.98781 -1.010592,-2.1827 -0.930954,-3.06776 0.189965,-2.11105 1.295944,-4.06127 2.663124,-4.69589 1.841179,-0.85464 4.074547,-2.24606 4.824286,-3.00569 1.924002,-1.94939 3.518226,-5.90243 3.25422,-8.06927 0.218776,-2.95145 -6.787341,-5.20734 -10.972032,-8.11235 -3.266112,-1.63914 -4.198865,-1.59015 -6.431353,0.34596 -1.962184,1.70763 -3.958735,4.23222 -6.226876,7.85488 -0.519768,0.83018 -1.05963,1.61296 -1.199597,1.73963 -0.139986,0.12666 -0.300658,0.3305 -0.357123,0.45332 -0.05649,0.1228 -0.5186,0.63824 -1.026831,1.14544 -0.808496,0.80684 -1.064492,0.96183 -2.047537,1.23955 -2.440504,0.68944 -4.987705,-0.37342 -6.260712,-2.30826 z m 21.880502,-21.13427 a 8.8300439,8.8300439 0 0 0 12.227013,2.53794 8.8300439,8.8300439 0 0 0 2.538717,-12.22655 8.8300439,8.8300439 0 0 0 -12.226898,-2.5385 8.8300439,8.8300439 0 0 0 -2.538832,12.22711 z m 2.461123,-1.61487 a 5.886695,5.886695 0 0 1 1.692368,-8.15145 5.886695,5.886695 0 0 1 8.151452,1.69236 5.886695,5.886695 0 0 1 -1.692369,8.15145 5.886695,5.886695 0 0 1 -8.151451,-1.69236 z m 21.217385,5.18536 a 3.0905116,3.0905116 0 0 0 4.279386,0.88846 3.0905116,3.0905116 0 0 0 0.888468,-4.27938 3.0905116,3.0905116 0 0 0 -4.279386,-0.88846 3.0905116,3.0905116 0 0 0 -0.888468,4.27938 z m -3.467873,-15.83022 a 4.5621464,4.5621464 0 0 0 6.317111,1.31153 4.5621464,4.5621464 0 0 0 1.311531,-6.31711 4.5621464,4.5621464 0 0 0 -6.317109,-1.31152 4.5621464,4.5621464 0 0 0 -1.311533,6.3171 z m 1.271441,-0.83426 a 3.0414304,3.0414304 0 0 1 0.874354,-4.21141 3.0414304,3.0414304 0 0 1 4.211406,0.87435 3.0414304,3.0414304 0 0 1 -0.874133,4.21174 3.0414304,3.0414304 0 0 1 -4.211627,-0.87468 z m -15.403099,-30.0801 c -0.122232,-0.1733 -0.240823,-0.37093 -0.377672,-0.61373 -0.749281,-1.32945 -0.937706,-2.52714 -0.630551,-4.00656 0.313981,-1.51233 1.008687,-2.54676 2.268084,-3.37685 1.983107,-1.30698 4.837063,-1.15546 6.620794,0.35132 2.014573,1.70179 2.411837,3.70509 1.327426,6.69703 -1.071637,2.61754 -1.229903,3.20822 -1.682086,5.09661 -0.215087,0.88657 -0.472467,2.30845 -0.57179,3.16 -0.19671,1.68637 -0.239333,1.73851 -0.45991,0.55928 -0.08106,-0.43339 -0.245955,-0.93819 -0.366366,-1.12171 -0.272738,-1.18035 -1.112287,-2.49835 -2.023089,-3.47787 -0.437059,-0.45663 -1.484685,-1.26845 -2.327858,-1.80415 -1.012281,-0.64297 -1.410295,-0.9435 -1.776982,-1.46337 z"
       id="path852"
       inkscape:connector-curvature="0" />
  </g>
</svg>
